<svg width="512" height="512" viewBox="0 0 512 512" xmlns="http://www.w3.org/2000/svg" xmlns:xlink="http://www.w3.org/1999/xlink" overflow="hidden"><g id="BULINE"><circle cx="256" cy="256" r="256" fill="#934CF5"/></g><g id="Icons"><path d="M512 255.91 512 256C512 397.38 397.38 512 256 512 114.615 512 0 397.385 0 256L0 255.91Z" fill="#DB1B1B"/><path d="M512 255.91 512 256 0 256 0 255.91C0.0496933 114.56 114.65-5.07304e-06 256 3.66211e-06 397.35 0 512 114.56 512 255.91Z" fill="#FFFFFF"/><path d="M287.76 510C147.467 527.541 19.5183 428.03 1.97776 287.738 0.661456 277.21 0.000931786 266.61 9.7206e-06 256L0 255.91 63.55 255.91 63.55 256C63.5593 385.085 159.674 493.97 287.76 510Z" fill="#BC1919"/><path d="M287.76 2C159.643 17.9708 63.497 126.891 63.55 256L-1.42109e-14 256-1.42109e-14 255.91C0.143293 114.453 114.933-0.103703 256.389 0.0395897 266.876 0.050213 277.353 0.704917 287.76 2Z" fill="#CECECE"/><g fill="#E83A3A"><circle cx="442.44" cy="370.72" r="16.28"/><circle cx="466.42" cy="346.74" r="11.53"/></g></g></svg>