<svg width="512" height="512" viewBox="0 0 512 512" xmlns="http://www.w3.org/2000/svg" xmlns:xlink="http://www.w3.org/1999/xlink" overflow="hidden"><g id="BULINE"><circle cx="256" cy="256" r="256" fill="#FC4581"/></g><g id="Icons"><path d="M392.54 39.43 119.46 39.43C124.333 36.35 129.313 33.4333 134.4 30.68 170.427 11.1826 210.63 0.674716 251.59 0.0500003L260.41 0.05C265.31 0.12 270.17 0.35 275 0.7 316.771 3.73808 357.145 17.0417 392.54 39.43Z" fill="#DB1B1B"/><path d="M440.76 78.81 71.24 78.81C71.48 78.55 71.73 78.3 71.98 78.04 76.6467 73.24 81.4633 68.63 86.43 64.21 91.21 59.99 96.1467 55.94 101.24 52.06 107.12 47.6 113.24 43.37 119.46 39.43L392.54 39.43C410.156 50.5461 426.349 63.7705 440.76 78.81Z" fill="#FFFFFF"/><path d="M471.77 118.18 40.23 118.18C43.88 112.49 47.75 106.93 51.83 101.56 57.8527 93.6061 64.3337 86.0099 71.24 78.81L440.76 78.81C452.35 90.8954 462.736 104.081 471.77 118.18Z" fill="#DB1B1B"/><path d="M492.38 157.56 19.62 157.56C20.86 154.56 22.16 151.62 23.53 148.68 27.8811 139.267 32.8002 130.127 38.26 121.31 38.91 120.31 39.57 119.23 40.26 118.18L471.77 118.18C479.771 130.683 486.668 143.859 492.38 157.56Z" fill="#FFFFFF"/><path d="M505.14 196.93 6.86 196.93C8.28667 190.83 9.95333 184.83 11.86 178.93 14.1467 171.65 16.7467 164.53 19.66 157.57L492.38 157.57C497.7 170.32 501.968 183.484 505.14 196.93Z" fill="#DB1B1B"/><path d="M511.25 236.31 0.75 236.31C1.75218 223.044 3.79514 209.876 6.86 196.93L505.14 196.93C508.205 209.876 510.248 223.044 511.25 236.31Z" fill="#FFFFFF"/><path d="M512 256C512 262.62 511.75 269.183 511.25 275.69L0.75 275.69C0.25 269.19 0 262.627 0 256L0 243.25C0.000996975 243.582 0.0944869 243.908 0.27 244.19 0.27 243.5 0.33 242.81 0.37 242.13 0.47 240.18 0.6 238.25 0.75 236.31L511.25 236.31C511.75 242.81 512 249.373 512 256Z" fill="#DB1B1B"/><path d="M511.25 275.69C510.249 288.957 508.206 302.124 505.14 315.07L6.86 315.07C3.79429 302.124 1.75132 288.957 0.75 275.69Z" fill="#FFFFFF"/><path d="M505.14 315.07C501.974 328.521 497.707 341.689 492.38 354.44L19.62 354.44C14.2934 341.689 10.0256 328.521 6.86 315.07Z" fill="#DB1B1B"/><path d="M492.38 354.44C486.674 368.144 479.778 381.321 471.77 393.82L40.23 393.82C32.2225 381.321 25.3261 368.144 19.62 354.44Z" fill="#FFFFFF"/><path d="M471.77 393.82C462.742 407.924 452.359 421.113 440.77 433.2L71.24 433.2C59.6506 421.113 49.2681 407.924 40.24 393.82Z" fill="#DB1B1B"/><path d="M440.76 433.2C426.341 448.231 410.149 461.455 392.54 472.58L119.46 472.58C101.851 461.455 85.6592 448.231 71.24 433.2Z" fill="#FFFFFF"/><path d="M392.54 472.58C353.135 497.527 307.631 511.164 261 512L251 512C204.36 511.186 158.842 497.567 119.42 472.63Z" fill="#DB1B1B"/><path d="M275 0.7 275 275.7 0.75 275.7C0.25 269.193 0 262.627 0 256L0 243.25C0.000996975 243.582 0.0944869 243.908 0.27 244.19 0.27 243.5 0.33 242.81 0.37 242.13 0.47 240.18 0.6 238.25 0.75 236.31 1.75218 223.044 3.79514 209.876 6.86 196.93 8.28667 190.83 9.95333 184.83 11.86 178.93 14.1467 171.65 16.7467 164.53 19.66 157.57 20.9 154.57 22.2 151.63 23.57 148.69 27.9211 139.277 32.8402 130.137 38.3 121.32 38.95 120.32 39.61 119.24 40.3 118.19 43.95 112.5 47.82 106.94 51.9 101.57 57.8997 93.6146 64.3573 86.0151 71.24 78.81 71.48 78.55 71.73 78.3 71.98 78.04 76.6467 73.24 81.4633 68.63 86.43 64.21 91.21 59.99 96.1467 55.94 101.24 52.06 107.12 47.6 113.24 43.37 119.46 39.43 124.333 36.35 129.313 33.4333 134.4 30.68 170.427 11.1826 210.63 0.674716 251.59 0.0500003L260.41 0.05C265.31 0.12 270.17 0.35 275 0.7Z" fill="#3E436D"/><g fill="#FFFFFF"><path d="M245.4 16.4 248.9 27.17C249.143 27.9205 249.841 28.4293 250.63 28.43L262 28.43C263.004 28.4693 263.787 29.3154 263.747 30.3198 263.726 30.8763 263.45 31.3922 263 31.72L253.83 38.38C253.202 38.835 252.936 39.6408 253.17 40.38L256.67 51.16C256.956 52.1238 256.406 53.1365 255.442 53.422 254.906 53.5809 254.326 53.4843 253.87 53.16L244.71 46.5C244.071 46.0395 243.209 46.0395 242.57 46.5L233.4 53.16C232.581 53.7426 231.445 53.551 230.862 52.7319 230.538 52.276 230.441 51.6964 230.6 51.16L234.11 40.38C234.334 39.6409 234.07 38.8406 233.45 38.38L224.28 31.72C223.468 31.1274 223.29 29.9888 223.883 29.1769 224.225 28.7084 224.77 28.431 225.35 28.43L236.68 28.43C237.468 28.4261 238.165 27.9186 238.41 27.17L241.91 16.4C242.196 15.4363 243.208 14.8865 244.172 15.1721 244.763 15.3471 245.225 15.8092 245.4 16.4Z"/><path d="M123.82 39.43C123.729 39.7571 123.729 40.1029 123.82 40.43L127.33 51.19C127.616 52.1538 127.066 53.1665 126.102 53.452 125.566 53.6109 124.986 53.5143 124.53 53.19L115.36 46.54C114.724 46.0812 113.866 46.0812 113.23 46.54L104.06 53.19C103.256 53.7842 102.123 53.6143 101.529 52.8105 101.36 52.5829 101.248 52.319 101.2 52.04 107.08 47.58 113.2 43.35 119.42 39.41 124.293 36.33 129.273 33.4133 134.36 30.66 134.245 31.0651 133.995 31.4183 133.65 31.66L124.48 38.32C124.134 38.5987 123.9 38.9927 123.82 39.43Z"/><path d="M245.4 100.22 248.9 111C249.144 111.749 249.843 112.254 250.63 112.25L262 112.25C263.005 112.252 263.819 113.068 263.817 114.073 263.816 114.653 263.539 115.198 263.07 115.54L253.9 122.2C253.272 122.655 253.006 123.461 253.24 124.2L256.7 135C256.986 135.964 256.436 136.976 255.472 137.262 254.936 137.421 254.356 137.324 253.9 137L244.74 130.34C244.101 129.879 243.239 129.879 242.6 130.34L233.43 137C232.611 137.583 231.475 137.391 230.892 136.572 230.568 136.116 230.471 135.536 230.63 135L234.14 124.22C234.364 123.481 234.1 122.681 233.48 122.22L224.31 115.56C223.498 114.967 223.32 113.829 223.913 113.017 224.255 112.548 224.8 112.271 225.38 112.27L236.71 112.27C237.496 112.271 238.194 111.767 238.44 111.02L241.94 100.24C242.247 99.2827 243.271 98.7553 244.228 99.0619 244.781 99.239 245.217 99.6692 245.4 100.22Z"/><path d="M180.73 100.22 184.23 111C184.474 111.749 185.173 112.254 185.96 112.25L197.29 112.25C198.295 112.252 199.109 113.068 199.107 114.073 199.106 114.653 198.829 115.198 198.36 115.54L189.19 122.2C188.565 122.657 188.3 123.461 188.53 124.2L192 135C192.294 135.955 191.759 136.968 190.803 137.263 190.26 137.43 189.67 137.333 189.21 137L180.04 130.34C179.401 129.879 178.539 129.879 177.9 130.34L168.76 137C167.95 137.586 166.818 137.404 166.233 136.593 165.9 136.133 165.803 135.543 165.97 135L169.47 124.22C169.7 123.481 169.435 122.677 168.81 122.22L159.64 115.56C158.828 114.967 158.65 113.829 159.243 113.017 159.585 112.548 160.13 112.271 160.71 112.27L172 112.27C172.787 112.274 173.486 111.769 173.73 111.02L177.23 100.24C177.501 99.2719 178.505 98.7064 179.473 98.9769 180.078 99.1462 180.554 99.6162 180.73 100.22Z"/><path d="M69 115.55 65.37 118.18 59.83 122.18C59.2074 122.639 58.9428 123.441 59.17 124.18L62.7 135C62.972 135.973 62.4035 136.983 61.4301 137.255 60.9075 137.401 60.347 137.308 59.9 137L50.74 130.33C50.101 129.869 49.239 129.869 48.6 130.33L39.43 137C38.5975 137.573 37.458 137.363 36.885 136.53 36.5774 136.083 36.484 135.523 36.63 135L40.14 124.23C40.358 123.491 40.095 122.694 39.48 122.23L38.26 121.34C38.91 120.34 39.57 119.26 40.26 118.21 43.91 112.52 47.78 106.96 51.86 101.59L54.9 111C55.1427 111.751 55.8412 112.259 56.63 112.26L68 112.26C69.0092 112.315 69.7826 113.178 69.7276 114.187 69.6981 114.726 69.4318 115.225 69 115.55Z"/><path d="M245.4 185.61 248.9 196.39C249.146 197.137 249.844 197.641 250.63 197.64L262 197.64C263.005 197.642 263.819 198.458 263.817 199.463 263.816 200.043 263.539 200.588 263.07 200.93L253.9 207.59C253.272 208.045 253.006 208.851 253.24 209.59L256.74 220.37C257.025 221.334 256.476 222.346 255.512 222.632 254.976 222.791 254.396 222.694 253.94 222.37L244.78 215.71C244.141 215.249 243.279 215.249 242.64 215.71L233.47 222.37C232.651 222.953 231.515 222.761 230.932 221.942 230.608 221.486 230.511 220.906 230.67 220.37L234.18 209.59C234.404 208.851 234.14 208.051 233.52 207.59L224.35 200.93C223.538 200.337 223.36 199.199 223.953 198.387 224.295 197.918 224.84 197.641 225.42 197.64L236.75 197.64C237.535 197.638 238.231 197.135 238.48 196.39L241.98 185.61C242.324 184.666 243.369 184.179 244.313 184.523 244.818 184.707 245.216 185.105 245.4 185.61Z"/><path d="M180.73 185.61 184.23 196.39C184.476 197.137 185.174 197.641 185.96 197.64L197.29 197.64C198.295 197.642 199.109 198.458 199.107 199.463 199.106 200.043 198.829 200.588 198.36 200.93L189.19 207.59C188.565 208.047 188.3 208.851 188.53 209.59L192 220.4C192.294 221.355 191.759 222.368 190.803 222.663 190.26 222.83 189.67 222.733 189.21 222.4L180.04 215.74C179.401 215.279 178.539 215.279 177.9 215.74L168.73 222.4C167.92 222.986 166.788 222.803 166.203 221.993 165.87 221.533 165.773 220.943 165.94 220.4L169.44 209.62C169.67 208.881 169.405 208.077 168.78 207.62L159.61 200.96C158.798 200.367 158.62 199.229 159.213 198.417 159.555 197.948 160.1 197.671 160.68 197.67L172 197.67C172.786 197.671 173.484 197.167 173.73 196.42L177.23 185.64C177.498 184.671 178.5 184.103 179.469 184.37 180.075 184.538 180.552 185.007 180.73 185.61Z"/><path d="M116.06 185.61 119.56 196.39C119.809 197.135 120.505 197.638 121.29 197.64L132.62 197.64C133.625 197.642 134.439 198.458 134.437 199.463 134.436 200.043 134.159 200.588 133.69 200.93L124.52 207.59C123.9 208.051 123.636 208.851 123.86 209.59L127.37 220.37C127.656 221.334 127.106 222.346 126.142 222.632 125.606 222.791 125.026 222.694 124.57 222.37L115.4 215.71C114.764 215.251 113.906 215.251 113.27 215.71L104.1 222.37C103.281 222.953 102.145 222.761 101.562 221.942 101.238 221.486 101.141 220.906 101.3 220.37L104.8 209.59C105.034 208.851 104.768 208.045 104.14 207.59L95 200.93C94.1874 200.338 94.0082 199.2 94.5998 198.387 94.9276 197.937 95.4435 197.662 96 197.64L107.33 197.64C108.116 197.641 108.814 197.137 109.06 196.39L112.56 185.61C112.836 184.644 113.843 184.084 114.81 184.36 115.415 184.533 115.887 185.005 116.06 185.61Z"/><path d="M51.4 185.61 54.9 196.39C55.1462 197.137 55.8439 197.641 56.63 197.64L68 197.64C69.0044 197.679 69.7867 198.525 69.7474 199.53 69.7257 200.086 69.4503 200.602 69 200.93L59.83 207.59C59.2022 208.045 58.9363 208.851 59.17 209.59L62.67 220.37C62.9555 221.334 62.4057 222.346 61.4419 222.632 60.9055 222.791 60.3259 222.694 59.87 222.37L50.71 215.71C50.071 215.249 49.209 215.249 48.57 215.71L39.4 222.37C38.5809 222.953 37.4446 222.761 36.862 221.942 36.5377 221.486 36.4411 220.906 36.6 220.37L40.11 209.59C40.3341 208.851 40.07 208.051 39.45 207.59L30.28 200.93C29.4681 200.337 29.2904 199.199 29.8831 198.387 30.2251 197.918 30.7699 197.641 31.35 197.64L42.71 197.64C43.4951 197.638 44.1912 197.135 44.44 196.39L47.94 185.61C48.2522 184.655 49.2798 184.133 50.2352 184.445 50.787 184.626 51.2197 185.058 51.4 185.61Z"/><path d="M213.06 55.91 216.56 66.69C216.806 67.4366 217.504 67.9407 218.29 67.94L229.62 67.94C230.625 67.9417 231.439 68.7579 231.437 69.7631 231.436 70.3431 231.159 70.888 230.69 71.23L221.52 77.89C220.9 78.3506 220.636 79.1509 220.86 79.89L224.37 90.67C224.655 91.6338 224.106 92.6465 223.142 92.932 222.606 93.0909 222.026 92.9943 221.57 92.67L212.4 86.01C211.764 85.5512 210.906 85.5512 210.27 86.01L201.1 92.67C200.281 93.2526 199.145 93.061 198.562 92.2419 198.238 91.786 198.141 91.2064 198.3 90.67L201.8 79.89C202.034 79.1508 201.768 78.345 201.14 77.89L192 71.23C191.187 70.6384 191.008 69.5001 191.6 68.6874 191.928 68.2372 192.443 67.9618 193 67.94L204.33 67.94C205.117 67.9438 205.816 67.4385 206.06 66.69L209.56 55.91C209.836 54.9435 210.843 54.3838 211.81 54.6599 212.415 54.8326 212.887 55.3053 213.06 55.91Z"/><path d="M91.53 78.81C91.4149 79.1745 91.4149 79.5655 91.53 79.93L95 90.7C95.2806 91.6652 94.7256 92.6751 93.7604 92.9557 93.2315 93.1095 92.6615 93.0154 92.21 92.7L83.04 86.03C82.401 85.5695 81.539 85.5695 80.9 86.03L71.73 92.7C70.906 93.2757 69.7714 93.0744 69.1957 92.2504 68.8803 91.7989 68.7863 91.2289 68.94 90.7L72.44 79.93C72.5551 79.5655 72.5551 79.1745 72.44 78.81 72.3733 78.5037 72.2206 78.2227 72 78 76.6667 73.2 81.4833 68.59 86.45 64.17L87.25 66.64C87.4806 67.4134 88.193 67.9426 89 67.94L100.33 67.94C101.341 67.9509 102.151 68.7791 102.14 69.7897 102.134 70.3623 101.86 70.899 101.4 71.24L92.23 77.89C91.9019 78.1114 91.6558 78.4347 91.53 78.81Z"/><path d="M40.21 157.56C40.1587 158.065 39.8881 158.522 39.47 158.81L30.3 165.48C29.68 165.941 29.4159 166.741 29.64 167.48L33.14 178.26C33.4344 179.215 32.8986 180.228 31.9433 180.523 31.4004 180.69 30.8104 180.593 30.35 180.26L21.18 173.61C20.5474 173.13 19.6726 173.13 19.04 173.61L11.82 178.86C14.1067 171.58 16.7067 164.46 19.62 157.5 20.86 154.5 22.16 151.56 23.53 148.62L25.34 154.21C25.5819 154.963 26.2796 155.475 27.07 155.48L38.4 155.48C39.4051 155.475 40.2239 156.286 40.2286 157.291 40.2291 157.381 40.2228 157.471 40.21 157.56Z"/><path d="M213.06 143.5 216.56 154.28C216.809 155.025 217.505 155.528 218.29 155.53L229.62 155.53C230.625 155.532 231.439 156.348 231.437 157.353 231.436 157.933 231.159 158.478 230.69 158.82L221.52 165.48C220.9 165.941 220.636 166.741 220.86 167.48L224.37 178.26C224.655 179.224 224.106 180.236 223.142 180.522 222.606 180.681 222.026 180.584 221.57 180.26L212.4 173.6C211.764 173.141 210.906 173.141 210.27 173.6L201.1 180.26C200.281 180.843 199.145 180.651 198.562 179.832 198.238 179.376 198.141 178.796 198.3 178.26L201.8 167.48C202.034 166.741 201.768 165.935 201.14 165.48L192 158.82C191.188 158.227 191.01 157.089 191.603 156.277 191.945 155.808 192.49 155.531 193.07 155.53L204.4 155.53C205.186 155.531 205.884 155.027 206.13 154.28L209.63 143.5C209.966 142.553 211.007 142.058 211.954 142.394 212.47 142.578 212.877 142.984 213.06 143.5Z"/><path d="M148.4 143.5 151.9 154.28C152.146 155.027 152.844 155.531 153.63 155.53L165 155.53C166.005 155.532 166.819 156.348 166.817 157.353 166.816 157.933 166.539 158.478 166.07 158.82L156.9 165.48C156.272 165.935 156.006 166.741 156.24 167.48L159.74 178.26C160.025 179.224 159.476 180.236 158.512 180.522 157.976 180.681 157.396 180.584 156.94 180.26L147.78 173.6C147.141 173.139 146.279 173.139 145.64 173.6L136.47 180.26C135.651 180.843 134.515 180.651 133.932 179.832 133.608 179.376 133.511 178.796 133.67 178.26L137.18 167.48C137.404 166.741 137.14 165.941 136.52 165.48L127.35 158.82C126.538 158.227 126.36 157.089 126.953 156.277 127.295 155.808 127.84 155.531 128.42 155.53L139.75 155.53C140.535 155.528 141.231 155.025 141.48 154.28L144.98 143.5C145.324 142.556 146.369 142.069 147.313 142.413 147.818 142.597 148.216 142.995 148.4 143.5Z"/><path d="M30.3 251.37C29.6749 251.827 29.4096 252.631 29.64 253.37L33.14 264.16C33.4344 265.115 32.8986 266.128 31.9433 266.423 31.4004 266.59 30.8104 266.493 30.35 266.16L21.18 259.51C20.5441 259.04 19.6759 259.04 19.04 259.51L9.88 266.2C9.07504 266.793 7.942 266.621 7.34928 265.816 7.00702 265.351 6.90699 264.751 7.08 264.2L10.58 253.41C10.817 252.671 10.5504 251.863 9.92 251.41L0.75 244.7C0.557805 244.563 0.394647 244.39 0.27 244.19 0.27 243.5 0.33 242.81 0.37 242.13 0.707639 241.67 1.24947 241.405 1.82 241.42L13.15 241.42C13.9404 241.415 14.6381 240.903 14.88 240.15L16.13 236.31 18.38 229.38C18.6922 228.425 19.7198 227.903 20.6752 228.215 21.227 228.396 21.6597 228.828 21.84 229.38L24.09 236.31 25.34 240.15C25.5819 240.903 26.2796 241.415 27.07 241.42L38.4 241.42C39.3996 241.412 40.2162 242.216 40.224 243.216 40.2286 243.804 39.9474 244.357 39.47 244.7Z"/><path d="M213.06 229.38 216.56 240.16C216.806 240.907 217.504 241.411 218.29 241.41L229.62 241.41C230.625 241.412 231.439 242.228 231.437 243.233 231.436 243.813 231.159 244.358 230.69 244.7L221.52 251.36C220.905 251.824 220.642 252.621 220.86 253.36L224.37 264.13C224.655 265.094 224.106 266.106 223.142 266.392 222.606 266.551 222.026 266.454 221.57 266.13L212.4 259.47C211.764 259.011 210.906 259.011 210.27 259.47L201.1 266.13C200.281 266.713 199.145 266.521 198.562 265.702 198.238 265.246 198.141 264.666 198.3 264.13L201.8 253.36C202.027 252.621 201.763 251.819 201.14 251.36L192 244.7C191.188 244.107 191.01 242.969 191.603 242.157 191.945 241.688 192.49 241.411 193.07 241.41L204.4 241.41C205.187 241.414 205.886 240.909 206.13 240.16L209.63 229.38C209.966 228.433 211.007 227.938 211.954 228.274 212.47 228.458 212.877 228.864 213.06 229.38Z"/><path d="M148.4 229.38 151.9 240.16C152.144 240.909 152.843 241.414 153.63 241.41L165 241.41C166.004 241.449 166.787 242.295 166.747 243.3 166.726 243.856 166.45 244.372 166 244.7L156.83 251.36C156.207 251.819 155.943 252.621 156.17 253.36L159.67 264.13C159.955 265.094 159.406 266.106 158.442 266.392 157.906 266.551 157.326 266.454 156.87 266.13L147.71 259.47C147.071 259.009 146.209 259.009 145.57 259.47L136.4 266.13C135.581 266.713 134.445 266.521 133.862 265.702 133.538 265.246 133.441 264.666 133.6 264.13L137.11 253.36C137.328 252.621 137.065 251.824 136.45 251.36L127.28 244.7C126.468 244.107 126.29 242.969 126.883 242.157 127.225 241.688 127.77 241.411 128.35 241.41L139.68 241.41C140.466 241.411 141.164 240.907 141.41 240.16L144.91 229.38C145.196 228.416 146.208 227.867 147.172 228.152 147.763 228.327 148.225 228.789 148.4 229.38Z"/><path d="M83.73 229.38 87.23 240.16C87.4779 240.923 88.1982 241.432 89 241.41L100.33 241.41C101.335 241.412 102.149 242.228 102.147 243.233 102.146 243.813 101.869 244.358 101.4 244.7L92.23 251.36C91.61 251.821 91.3459 252.621 91.57 253.36L95 264.17C95.2944 265.125 94.7586 266.138 93.8033 266.433 93.2604 266.6 92.6704 266.503 92.21 266.17L83.04 259.51C82.401 259.049 81.539 259.049 80.9 259.51L71.73 266.17C70.9198 266.756 69.7884 266.574 69.2028 265.763 68.87 265.303 68.7727 264.713 68.94 264.17L72.44 253.4C72.6641 252.661 72.4 251.861 71.78 251.4L62.61 244.74C61.7981 244.147 61.6204 243.009 62.2131 242.197 62.5551 241.728 63.0999 241.451 63.68 241.45L75 241.45C75.7871 241.454 76.4865 240.949 76.73 240.2L80.23 229.42C80.4948 228.45 81.4955 227.879 82.4652 228.144 83.0721 228.31 83.5504 228.777 83.73 229.38Z"/></g><path d="M287 1.86C283 2.33 279 2.92 275 3.58 248.41 8.05902 222.704 16.748 198.85 29.32 197.99 29.76 197.14 30.23 196.29 30.68 191.197 33.4333 186.217 36.35 181.35 39.43L119.46 39.43C124.333 36.35 129.313 33.4333 134.4 30.68 170.427 11.1826 210.63 0.674716 251.59 0.0500003L260.41 0.05C265.31 0.12 270.17 0.35 275 0.7 279 0.993333 283 1.38 287 1.86Z" fill="#DB1B1B"/><path d="M181.35 39.43C176.27 42.6167 171.32 45.99 166.5 49.55 165.37 50.37 164.25 51.21 163.13 52.06 158.8 55.36 154.59 58.77 150.49 62.33 149.76 62.94 149.04 63.57 148.32 64.21 143.74 68.26 139.32 72.49 135.04 76.85L136.48 77.85C136.793 78.0777 137.025 78.4003 137.14 78.77L71.24 78.77C71.48 78.51 71.73 78.26 71.98 78 76.6467 73.2 81.4633 68.59 86.43 64.17 91.21 59.95 96.1467 55.9 101.24 52.02 107.12 47.56 113.24 43.33 119.46 39.39Z" fill="#FFFFFF"/><path d="M133.13 78.81C126.875 85.3319 120.967 92.178 115.43 99.32L113.72 101.56C112.79 102.79 111.87 104.02 110.96 105.27L109.1 111C108.857 111.751 108.159 112.259 107.37 112.26L106 112.26C104.66 114.26 103.36 116.2 102.08 118.19L40.23 118.19C43.88 112.5 47.75 106.94 51.83 101.57 57.8524 93.6127 64.3334 86.0132 71.24 78.81Z" fill="#DB1B1B"/><path d="M102.12 118.18 101.02 119.93 100.15 121.31C94.6902 130.127 89.7711 139.267 85.42 148.68 84.05 151.61 82.75 154.55 81.51 157.55L19.62 157.55C20.86 154.55 22.16 151.61 23.53 148.67 27.8811 139.257 32.8002 130.117 38.26 121.3 38.91 120.3 39.57 119.22 40.26 118.17Z" fill="#FFFFFF"/><path d="M81.51 157.56C78.5967 164.52 75.9967 171.633 73.71 178.9 71.8433 184.813 70.1767 190.813 68.71 196.9L6.86 196.9C8.28667 190.8 9.95333 184.8 11.86 178.9 14.1467 171.62 16.7467 164.5 19.66 157.54Z" fill="#DB1B1B"/><path d="M69 200.93 67.59 201.93C65.1412 213.256 63.4706 224.736 62.59 236.29L0.75 236.29C1.75218 223.024 3.79514 209.856 6.86 196.91L68.75 196.91C68.69 197.18 68.62 197.46 68.56 197.72 69.5086 198.052 70.0082 199.091 69.6759 200.039 69.5496 200.4 69.3132 200.711 69 200.93Z" fill="#FFFFFF"/><path d="M61.89 256C61.89 262.62 62.14 269.183 62.64 275.69L0.75 275.69C0.25 269.19 0 262.627 0 256L0 243.25C0.000996975 243.582 0.0944869 243.908 0.27 244.19 0.27 243.5 0.33 242.81 0.37 242.13 0.47 240.18 0.6 238.25 0.75 236.31L62.64 236.31C62.49 238.25 62.36 240.18 62.26 242.13 62.26 242.81 62.19 243.5 62.16 244.19 62.0692 244.052 62.0016 243.9 61.96 243.74 61.96 243.65 61.96 243.57 61.91 243.49 61.9046 243.41 61.9046 243.33 61.91 243.25Z" fill="#DB1B1B"/><path d="M68.75 315.07 6.86 315.07C3.79429 302.124 1.75132 288.957 0.75 275.69L62.64 275.69C63.6413 288.957 65.6843 302.124 68.75 315.07Z" fill="#DBDBDB"/><path d="M81.51 354.44 19.62 354.44C14.2934 341.689 10.0256 328.521 6.86 315.07L68.75 315.07C71.9156 328.521 76.1834 341.689 81.51 354.44Z" fill="#C11A1A"/><path d="M102.12 393.82 40.23 393.82C32.2225 381.321 25.3261 368.144 19.62 354.44L81.51 354.44C87.2161 368.144 94.1125 381.321 102.12 393.82Z" fill="#DBDBDB"/><path d="M133.13 433.2 71.24 433.2C59.6506 421.113 49.2681 407.924 40.24 393.82L102.13 393.82C111.158 407.924 121.541 421.113 133.13 433.2Z" fill="#C11A1A"/><path d="M181.35 472.58 119.46 472.58C101.851 461.455 85.6592 448.231 71.24 433.2L133.13 433.2C147.549 448.231 163.741 461.455 181.35 472.58Z" fill="#DBDBDB"/><path d="M287 510.14C278.371 511.206 269.693 511.827 261 512L251 512C204.36 511.186 158.842 497.567 119.42 472.63L181.31 472.63C213.307 492.848 249.416 505.663 287 510.14Z" fill="#C11A1A"/><path d="M275 0.7 275 3.58C248.41 8.05902 222.704 16.748 198.85 29.32 197.99 29.76 197.14 30.23 196.29 30.68 191.197 33.4333 186.217 36.35 181.35 39.43 176.27 42.6167 171.32 45.99 166.5 49.55 165.37 50.37 164.25 51.21 163.13 52.06 158.8 55.36 154.59 58.77 150.49 62.33 149.76 62.94 149.04 63.57 148.32 64.21 143.74 68.26 139.32 72.49 135.04 76.85L136.48 77.85C136.793 78.0777 137.025 78.4003 137.14 78.77L133.14 78.77C126.885 85.2919 120.977 92.138 115.44 99.28L113.73 101.52C112.8 102.75 111.88 103.98 110.97 105.23L109.1 111C108.857 111.751 108.159 112.259 107.37 112.26L106 112.26C104.66 114.26 103.36 116.2 102.08 118.19L100.98 119.94 100.11 121.32C94.6502 130.137 89.7311 139.277 85.38 148.69 84.01 151.62 82.71 154.56 81.47 157.56 78.5833 164.52 75.9967 171.633 73.71 178.9 71.8433 184.813 70.1767 190.813 68.71 196.9 68.65 197.17 68.58 197.45 68.52 197.71 69.4689 198.042 69.9693 199.08 69.6376 200.029 69.5154 200.378 69.2895 200.682 68.99 200.9L67.58 201.9C65.1312 213.226 63.4606 224.706 62.58 236.26 62.43 238.2 62.3 240.13 62.2 242.08 62.2 242.76 62.13 243.45 62.1 244.14 62.0092 244.002 61.9416 243.85 61.9 243.69 61.9 243.6 61.9 243.52 61.85 243.44 61.8446 243.36 61.8446 243.28 61.85 243.2L61.85 256C61.85 262.62 62.1 269.183 62.6 275.69L0.75 275.69C0.25 269.19-7.10543e-15 262.627-7.10543e-15 256L-7.10543e-15 243.25C0.000996975 243.582 0.0944869 243.908 0.27 244.19 0.27 243.5 0.33 242.81 0.37 242.13 0.47 240.18 0.6 238.25 0.75 236.31 1.75218 223.044 3.79514 209.876 6.86 196.93 8.28667 190.83 9.95333 184.83 11.86 178.93 14.1467 171.65 16.7467 164.53 19.66 157.57 20.9 154.57 22.2 151.63 23.57 148.69 27.9211 139.277 32.8402 130.137 38.3 121.32 38.95 120.32 39.61 119.24 40.3 118.19 43.95 112.5 47.82 106.94 51.9 101.57 57.8997 93.6146 64.3573 86.0151 71.24 78.81 71.48 78.55 71.73 78.3 71.98 78.04 76.6467 73.24 81.4633 68.63 86.43 64.21 91.21 59.99 96.1467 55.94 101.24 52.06 107.12 47.6 113.24 43.37 119.46 39.43 124.333 36.35 129.313 33.4333 134.4 30.68 170.427 11.1826 210.63 0.674716 251.59 0.0500003L260.41 0.05C265.31 0.12 270.17 0.35 275 0.7Z" fill="#32314B"/><path d="M123.82 39.43C123.729 39.7571 123.729 40.1029 123.82 40.43L127.33 51.19C127.616 52.1538 127.066 53.1665 126.102 53.452 125.566 53.6109 124.986 53.5143 124.53 53.19L115.36 46.54C114.724 46.0812 113.866 46.0812 113.23 46.54L104.06 53.19C103.256 53.7842 102.123 53.6143 101.529 52.8105 101.36 52.5829 101.248 52.319 101.2 52.04 107.08 47.58 113.2 43.35 119.42 39.41 124.293 36.33 129.273 33.4133 134.36 30.66 134.245 31.0651 133.995 31.4183 133.65 31.66L124.48 38.32C124.134 38.5987 123.9 38.9927 123.82 39.43Z" fill="#DBDBDB"/><path d="M115.43 99.32 113.72 101.56C112.79 102.79 111.87 104.02 110.96 105.27L112.6 100.27C112.883 99.3055 113.894 98.7529 114.859 99.0359 115.064 99.0962 115.258 99.1924 115.43 99.32Z" fill="#DBDBDB"/><path d="M69 115.55 65.37 118.18 59.83 122.18C59.2074 122.639 58.9428 123.441 59.17 124.18L62.7 135C62.972 135.973 62.4035 136.983 61.4301 137.255 60.9075 137.401 60.347 137.308 59.9 137L50.74 130.33C50.101 129.869 49.239 129.869 48.6 130.33L39.43 137C38.5975 137.573 37.458 137.363 36.885 136.53 36.5774 136.083 36.484 135.523 36.63 135L40.14 124.23C40.358 123.491 40.095 122.694 39.48 122.23L38.26 121.34C38.91 120.34 39.57 119.26 40.26 118.21 43.91 112.52 47.78 106.96 51.86 101.59L54.9 111C55.1427 111.751 55.8412 112.259 56.63 112.26L68 112.26C69.0092 112.315 69.7826 113.178 69.7276 114.187 69.6981 114.726 69.4318 115.225 69 115.55Z" fill="#DBDBDB"/><path d="M69 200.93 67.59 201.93 59.83 207.58C59.1969 208.031 58.9297 208.841 59.17 209.58L62.67 220.35C62.9555 221.314 62.4057 222.326 61.4419 222.612 60.9055 222.771 60.3259 222.674 59.87 222.35L50.71 215.69C50.071 215.229 49.209 215.229 48.57 215.69L39.4 222.35C38.5809 222.933 37.4446 222.741 36.862 221.922 36.5377 221.466 36.4411 220.886 36.6 220.35L40.11 209.58C40.3404 208.841 40.0751 208.037 39.45 207.58L30.28 200.91C29.4681 200.317 29.2904 199.179 29.8831 198.367 30.2251 197.898 30.7699 197.621 31.35 197.62L42.71 197.62C43.2741 197.619 43.806 197.357 44.15 196.91 44.2739 196.742 44.3717 196.557 44.44 196.36L47.94 185.59C48.2522 184.635 49.2798 184.113 50.2352 184.425 50.787 184.606 51.2197 185.038 51.4 185.59L54.9 196.36C54.9683 196.557 55.0661 196.742 55.19 196.91 55.534 197.357 56.0659 197.619 56.63 197.62L68 197.62C68.2041 197.621 68.4067 197.654 68.6 197.72 69.5434 198.067 70.027 199.113 69.6801 200.056 69.5496 200.411 69.3119 200.716 69 200.93Z" fill="#DBDBDB"/><path d="M91.53 78.81C91.4149 79.1745 91.4149 79.5655 91.53 79.93L95 90.7C95.2806 91.6652 94.7256 92.6751 93.7604 92.9557 93.2315 93.1095 92.6615 93.0154 92.21 92.7L83.04 86.03C82.401 85.5695 81.539 85.5695 80.9 86.03L71.73 92.7C70.906 93.2757 69.7714 93.0744 69.1957 92.2504 68.8803 91.7989 68.7863 91.2289 68.94 90.7L72.44 79.93C72.5551 79.5655 72.5551 79.1745 72.44 78.81 72.3733 78.5037 72.2206 78.2227 72 78 76.6667 73.2 81.4833 68.59 86.45 64.17L87.25 66.64C87.4806 67.4134 88.193 67.9426 89 67.94L100.33 67.94C101.341 67.9509 102.151 68.7791 102.14 69.7897 102.134 70.3623 101.86 70.899 101.4 71.24L92.23 77.89C91.9019 78.1114 91.6558 78.4347 91.53 78.81Z" fill="#DBDBDB"/><path d="M40.21 157.56C40.1587 158.065 39.8881 158.522 39.47 158.81L30.3 165.48C29.68 165.941 29.4159 166.741 29.64 167.48L33.14 178.26C33.4344 179.215 32.8986 180.228 31.9433 180.523 31.4004 180.69 30.8104 180.593 30.35 180.26L21.18 173.61C20.5474 173.13 19.6726 173.13 19.04 173.61L11.82 178.86C14.1067 171.58 16.7067 164.46 19.62 157.5 20.86 154.5 22.16 151.56 23.53 148.62L25.34 154.21C25.5819 154.963 26.2796 155.475 27.07 155.48L38.4 155.48C39.4051 155.475 40.2239 156.286 40.2286 157.291 40.2291 157.381 40.2228 157.471 40.21 157.56Z" fill="#DBDBDB"/><path d="M30.3 251.37C29.6749 251.827 29.4096 252.631 29.64 253.37L33.14 264.16C33.4344 265.115 32.8986 266.128 31.9433 266.423 31.4004 266.59 30.8104 266.493 30.35 266.16L21.18 259.51C20.5441 259.04 19.6759 259.04 19.04 259.51L9.88 266.2C9.07504 266.793 7.942 266.621 7.34928 265.816 7.00702 265.351 6.90699 264.751 7.08 264.2L10.58 253.41C10.817 252.671 10.5504 251.863 9.92 251.41L0.75 244.7C0.557805 244.563 0.394647 244.39 0.27 244.19 0.27 243.5 0.33 242.81 0.37 242.13 0.707639 241.67 1.24947 241.405 1.82 241.42L13.15 241.42C13.9404 241.415 14.6381 240.903 14.88 240.15L16.13 236.31 18.38 229.38C18.6922 228.425 19.7198 227.903 20.6752 228.215 21.227 228.396 21.6597 228.828 21.84 229.38L24.09 236.31 25.34 240.15C25.5819 240.903 26.2796 241.415 27.07 241.42L38.4 241.42C39.3996 241.412 40.2162 242.216 40.224 243.216 40.2286 243.804 39.9474 244.357 39.47 244.7Z" fill="#DBDBDB"/><path d="M61.89 243.25C61.8914 242.847 62.021 242.455 62.26 242.13 62.26 242.81 62.19 243.5 62.16 244.19 62.0692 244.052 62.0016 243.9 61.96 243.74 61.96 243.65 61.96 243.57 61.91 243.49 61.898 243.411 61.8913 243.33 61.89 243.25Z" fill="#FFFFFF"/><path d="M83.73 143.5 87.23 154.28C87.4807 155.041 88.1992 155.548 89 155.53L100.33 155.53C101.335 155.532 102.149 156.348 102.147 157.353 102.146 157.933 101.869 158.478 101.4 158.82L92.23 165.48C91.6049 165.937 91.3396 166.741 91.57 167.48L95 178.29C95.2944 179.245 94.7586 180.258 93.8033 180.553 93.2604 180.72 92.6704 180.623 92.21 180.29L83.04 173.63C82.401 173.169 81.539 173.169 80.9 173.63L71.73 180.29C70.9198 180.876 69.7884 180.693 69.2028 179.883 68.87 179.423 68.7727 178.833 68.94 178.29L72.44 167.51C72.6704 166.771 72.4051 165.967 71.78 165.51L62.61 158.85C61.7981 158.257 61.6204 157.119 62.2131 156.307 62.5551 155.838 63.0999 155.561 63.68 155.56L75 155.56C75.7861 155.561 76.4838 155.057 76.73 154.31L80.23 143.53C80.4977 142.561 81.5001 141.993 82.4689 142.26 83.0753 142.428 83.5521 142.897 83.73 143.5Z" fill="#FFFFFF"/><path d="M85.42 148.68C84.05 151.61 82.75 154.55 81.51 157.55 78.5967 164.517 75.9967 171.633 73.71 178.9L71.76 180.3C70.9498 180.886 69.8184 180.704 69.2328 179.893 68.9 179.433 68.8027 178.843 68.97 178.3L72.47 167.52C72.7004 166.781 72.4351 165.977 71.81 165.52L62.64 158.85C62.2219 158.562 61.9513 158.105 61.9 157.6 61.8006 156.6 62.5308 155.708 63.5311 155.609 63.5905 155.603 63.6502 155.6 63.71 155.6L75 155.6C75.7904 155.595 76.4881 155.083 76.73 154.33L80.23 143.55C80.5422 142.595 81.5698 142.073 82.5252 142.385 83.077 142.566 83.5097 142.998 83.69 143.55Z" fill="#DBDBDB"/><path d="M116.06 100.22 119.56 111C119.806 111.747 120.504 112.251 121.29 112.25L132.62 112.25C133.625 112.252 134.439 113.068 134.437 114.073 134.436 114.653 134.159 115.198 133.69 115.54L124.52 122.2C123.9 122.661 123.636 123.461 123.86 124.2L127.37 135C127.656 135.964 127.106 136.976 126.142 137.262 125.606 137.421 125.026 137.324 124.57 137L115.4 130.34C114.764 129.881 113.906 129.881 113.27 130.34L104.1 137C103.281 137.583 102.145 137.391 101.562 136.572 101.238 136.116 101.141 135.536 101.3 135L104.8 124.22C105.034 123.481 104.768 122.675 104.14 122.22L95 115.54C94.1874 114.948 94.0082 113.81 94.5998 112.997 94.9276 112.547 95.4435 112.272 96 112.25L107.33 112.25C108.132 112.272 108.852 111.763 109.1 111L112.6 100.22C112.912 99.2645 113.94 98.7431 114.895 99.0552 115.447 99.2355 115.88 99.6682 116.06 100.22Z" fill="#FFFFFF"/><path d="M96 112.25 106 112.25C104.66 114.25 103.36 116.19 102.08 118.18L100.98 119.93 98.56 118.18 95 115.55C94.187 114.95 94.0147 113.804 94.6151 112.991 94.9419 112.548 95.4505 112.276 96 112.25Z" fill="#DBDBDB"/><path d="M148.4 55.91 151.9 66.69C152.144 67.4385 152.843 67.9438 153.63 67.94L165 67.94C166.004 67.9793 166.787 68.8254 166.747 69.8298 166.726 70.3863 166.45 70.9022 166 71.23L156.83 77.89C156.202 78.345 155.936 79.1508 156.17 79.89L159.67 90.67C159.955 91.6338 159.406 92.6465 158.442 92.932 157.906 93.0909 157.326 92.9943 156.87 92.67L147.71 86.01C147.071 85.5495 146.209 85.5495 145.57 86.01L136.4 92.67C135.581 93.2526 134.445 93.061 133.862 92.2419 133.538 91.786 133.441 91.2064 133.6 90.67L137.11 79.89C137.334 79.1509 137.07 78.3506 136.45 77.89L127.28 71.23C126.468 70.6374 126.29 69.4988 126.883 68.6869 127.225 68.2184 127.77 67.941 128.35 67.94L139.68 67.94C140.466 67.9407 141.164 67.4366 141.41 66.69L144.91 55.91C145.196 54.9463 146.208 54.3965 147.172 54.6821 147.763 54.8571 148.225 55.3192 148.4 55.91Z" fill="#FFFFFF"/><path d="M150.49 62.33C149.76 62.94 149.04 63.57 148.32 64.21 143.74 68.26 139.32 72.49 135.04 76.85L127.31 71.24C126.493 70.655 126.304 69.5182 126.889 68.7008 127.233 68.2202 127.789 67.9365 128.38 67.94L139.71 67.94C140.498 67.9361 141.195 67.4286 141.44 66.68L144.94 55.92C145.252 54.9645 146.28 54.4431 147.235 54.7552 147.787 54.9355 148.22 55.3682 148.4 55.92Z" fill="#DBDBDB"/><path d="M180.73 16.4 184.23 27.17C184.477 27.9347 185.197 28.4469 186 28.43L197.33 28.43C198.335 28.4317 199.149 29.2479 199.147 30.2531 199.146 30.8331 198.869 31.378 198.4 31.72L189.23 38.38C188.605 38.8369 188.34 39.6408 188.57 40.38L192 51.19C192.294 52.1453 191.759 53.1584 190.803 53.4528 190.26 53.6201 189.67 53.5228 189.21 53.19L180.04 46.53C179.401 46.0695 178.539 46.0695 177.9 46.53L168.73 53.19C167.92 53.7756 166.788 53.5935 166.203 52.7833 165.87 52.3229 165.773 51.7329 165.94 51.19L169.44 40.41C169.67 39.6708 169.405 38.8669 168.78 38.41L159.61 31.75C158.798 31.1574 158.62 30.0188 159.213 29.2069 159.555 28.7384 160.1 28.461 160.68 28.46L172 28.46C172.789 28.4593 173.487 27.9505 173.73 27.2L177.23 16.43C177.498 15.4611 178.5 14.8927 179.469 15.1604 180.075 15.3279 180.552 15.7966 180.73 16.4Z" fill="#FFFFFF"/><path d="M198.85 29.32C197.99 29.76 197.14 30.23 196.29 30.68 191.197 33.4333 186.217 36.35 181.35 39.43 176.27 42.6167 171.32 45.99 166.5 49.55L169.5 40.42C169.591 40.0929 169.591 39.7471 169.5 39.42 169.402 38.9941 169.153 38.6178 168.8 38.36L159.63 31.7C158.818 31.1168 158.633 29.9859 159.216 29.174 159.559 28.6966 160.112 28.4154 160.7 28.42L172 28.42C172.787 28.4238 173.486 27.9185 173.73 27.17L177.23 16.38C177.542 15.4245 178.57 14.9031 179.525 15.2152 180.077 15.3955 180.51 15.8282 180.69 16.38L184.19 27.17C184.438 27.9515 185.181 28.4685 186 28.43L197.33 28.43C197.959 28.4356 198.537 28.7744 198.85 29.32Z" fill="#DBDBDB"/><circle cx="481.31" cy="255.91" r="16.28" fill="#E54141"/><circle cx="447.4" cy="255.91" r="11.53" fill="#E54141"/></g></svg>