<svg viewBox="0 0 480.078 480.078" xmlns="http://www.w3.org/2000/svg" xmlns:xlink="http://www.w3.org/1999/xlink" id="Capa_1" overflow="hidden"><linearGradient x1="-26.7845" y1="556.703" x2="-26.7845" y2="618.414" gradientUnits="userSpaceOnUse" id="SVGID_1_" gradientTransform="matrix(8 0 0 -8 454.315 4941.7)"><stop offset="0" stop-color="#006DF0"/><stop offset="1" stop-color="#00E7F0"/></linearGradient><path d="M477.834 234.422 245.754 2.342C242.63-0.781 237.566-0.781 234.442 2.342L2.362 234.422C-0.762 237.552-0.756 242.622 2.374 245.746 5.504 248.87 10.574 248.864 13.698 245.734L40.098 219.278 40.098 472.078C40.098 476.496 43.68 480.078 48.098 480.078L432.098 480.078C436.516 480.078 440.098 476.496 440.098 472.078L440.098 219.278 466.498 245.678C469.676 248.747 474.74 248.66 477.81 245.482 480.804 242.382 480.804 237.467 477.81 234.366L477.834 234.422ZM296.098 464.078 184.098 464.078 184.098 344.078C184.098 313.15 209.17 288.078 240.098 288.078 271.026 288.078 296.098 313.15 296.098 344.078L296.098 344.078 296.098 464.078ZM424.098 464.078 312.098 464.078 312.098 344.078C312.098 304.314 279.862 272.078 240.098 272.078 200.334 272.078 168.098 304.314 168.098 344.078L168.098 464.078 56.098 464.078 56.098 203.278 240.098 19.278 424.098 203.278 424.098 464.078Z" fill="#F2F2F2"/><g></g><g></g><g></g><g></g><g></g><g></g><g></g><g></g><g></g><g></g><g></g><g></g><g></g><g></g><g></g></svg>