<svg width="512" height="512" viewBox="0 0 64 64" xmlns="http://www.w3.org/2000/svg" xmlns:xlink="http://www.w3.org/1999/xlink" overflow="hidden"><g id="computer-teacher-learning-online_education-online_learning"><path d="M57 2 7 2C4.23858 2 2 4.23858 2 7L2 43C2 45.7614 4.23858 48 7 48L26 48 26 54 20 54C18.3452 54.0049 17.0049 55.3452 17 57L17 61C17 61.5523 17.4477 62 18 62L46 62C46.5523 62 47 61.5523 47 61L47 57C46.9951 55.3452 45.6548 54.0049 44 54L38 54 38 48 57 48C59.7614 48 62 45.7614 62 43L62 7C62 4.23858 59.7614 2 57 2ZM44 56C44.5523 56 45 56.4477 45 57L45 60 19 60 19 57C19 56.4477 19.4477 56 20 56ZM28 54 28 48 36 48 36 54ZM60 43C59.9951 44.6548 58.6548 45.9951 57 46L7 46C5.3452 45.9951 4.00494 44.6548 4 43L4 40 60 40ZM28.27 16.04C27.9911 15.956 27.6892 16.0039 27.45 16.17L21.7 20 21 20 21 19C21 12.9249 25.9249 8 32 8 38.0751 8 43 12.9249 43 19L43 20 42.14 20ZM41 21.75 41 22 38.82 22C38.6784 21.611 38.4609 21.2541 38.18 20.95ZM37 23C37 23.5523 36.5523 24 36 24 35.4477 24 35 23.5523 35 23 35 22.4477 35.4477 22 36 22 36.5523 22 37 22.4477 37 23ZM23 21.54 28.17 18.09 35.24 20.11C34.2824 20.3595 33.5108 21.0674 33.18 22L30.82 22C30.2745 20.4426 28.5696 19.6223 27.0122 20.1678 26.1547 20.4682 25.4804 21.1425 25.18 22L23 22ZM29 23C29 23.5523 28.5523 24 28 24 27.4477 24 27 23.5523 27 23 27 22.4477 27.4477 22 28 22 28.5523 22 29 22.4477 29 23ZM25.18 24C25.7255 25.5574 27.4304 26.3777 28.9878 25.8322 29.8453 25.5318 30.5196 24.8575 30.82 24L33.18 24C33.7255 25.5574 35.4304 26.3777 36.9878 25.8322 37.8453 25.5318 38.5196 24.8575 38.82 24L40.94 24C40.367 28.9374 35.8999 32.4755 30.9625 31.9025 26.8138 31.421 23.5415 28.1487 23.06 24ZM18 38 18 37C18.0049 35.3452 19.3452 34.0049 21 34L43 34C44.6548 34.0049 45.9951 35.3452 46 37L46 38ZM60 38 48 38 48 37C48 34.2386 45.7614 32 43 32L38.3 32C41.2435 29.9485 42.9985 26.5879 43 23L43 22 44 22C44.5523 22 45 21.5523 45 21L45 19C45 11.8203 39.1797 6 32 6 24.8203 6 19 11.8203 19 19L19 21C19 21.5523 19.4477 22 20 22L21 22 21 23C21.0015 26.5879 22.7565 29.9485 25.7 32L21 32C18.2386 32 16 34.2386 16 37L16 38 4 38 4 7C4.00494 5.3452 5.3452 4.00494 7 4L57 4C58.6548 4.00494 59.9951 5.3452 60 7Z" fill="#D9D9D9"/><path d="M54 42 56 42 56 44 54 44Z" fill="#D9D9D9"/><path d="M50 42 52 42 52 44 50 44Z" fill="#D9D9D9"/><path d="M30 28 34 28 34 30 30 30Z" fill="#D9D9D9"/></g></svg>