<svg viewBox="0 0 512 512" xmlns="http://www.w3.org/2000/svg" xmlns:xlink="http://www.w3.org/1999/xlink" id="Capa_1" overflow="hidden"><g><g><path d="M437.019 74.98C388.667 26.628 324.38 0 256 0 187.619 0 123.332 26.629 74.98 74.98 26.629 123.332 0 187.62 0 256 0 324.381 26.629 388.668 74.98 437.02 123.332 485.371 187.619 512 256 512 324.38 512 388.667 485.371 437.019 437.02 485.371 388.667 512 324.38 512 256 512 187.62 485.371 123.333 437.019 74.98ZM400.887 268.482 208.086 397.014C205.576 398.688 202.675 399.534 199.765 399.534 197.338 399.534 194.906 398.946 192.688 397.759 187.811 395.15 184.766 390.066 184.766 384.534L184.766 127.467C184.766 121.935 187.811 116.852 192.688 114.242 197.564 111.632 203.483 111.917 208.086 114.987L400.887 243.52C405.06 246.302 407.567 250.986 407.567 256.001 407.566 261.017 405.06 265.699 400.887 268.482Z" fill="#00CC00"/></g></g><g></g><g></g><g></g><g></g><g></g><g></g><g></g><g></g><g></g><g></g><g></g><g></g><g></g><g></g><g></g></svg>