<svg viewBox="0 0 480 480" xmlns="http://www.w3.org/2000/svg" xmlns:xlink="http://www.w3.org/1999/xlink" id="Capa_1" overflow="hidden"><g><g><path d="M416 0 64 0C59.582 0 56 3.582 56 8L56 472C56 476.418 59.582 480 64 480L416 480C420.418 480 424 476.418 424 472L424 8C424 3.582 420.418 0 416 0ZM408 464 72 464 72 16 408 16 408 464Z" fill="#D9D9D9"/></g></g><g><g><path d="M381.647 386.767C378.807 383.693 374.079 383.328 370.8 385.928L323.832 426.176 319.584 413.472C318.188 409.275 313.653 407.004 309.456 408.4 305.259 409.796 302.988 414.331 304.384 418.528L312.384 442.528C313.224 445.055 315.266 446.998 317.832 447.712 318.538 447.905 319.268 448.002 320 448 321.909 448.003 323.755 447.318 325.2 446.072L381.2 398.072C384.445 395.074 384.646 390.012 381.647 386.767Z" fill="#D9D9D9"/></g></g><g><g><path d="M240 32C222.327 32 208 46.327 208 64 208 81.673 222.327 96 240 96 257.673 96 272 81.673 272 64 272 46.327 257.673 32 240 32ZM240 80C231.163 80 224 72.837 224 64 224 55.163 231.163 48 240 48 248.837 48 256 55.163 256 64 256 72.837 248.837 80 240 80Z" fill="#D9D9D9"/></g></g><g><g><path d="M368 128 112 128C107.582 128 104 131.582 104 136 104 140.418 107.582 144 112 144L368 144C372.418 144 376 140.418 376 136 376 131.582 372.418 128 368 128Z" fill="#D9D9D9"/></g></g><g><g><path d="M368 176 112 176C107.582 176 104 179.582 104 184 104 188.418 107.582 192 112 192L368 192C372.418 192 376 188.418 376 184 376 179.582 372.418 176 368 176Z" fill="#D9D9D9"/></g></g><g><g><path d="M368 216 112 216C107.582 216 104 219.582 104 224 104 228.418 107.582 232 112 232L368 232C372.418 232 376 228.418 376 224 376 219.582 372.418 216 368 216Z" fill="#D9D9D9"/></g></g><g><g><path d="M368 264 112 264C107.582 264 104 267.582 104 272 104 276.418 107.582 280 112 280L368 280C372.418 280 376 276.418 376 272 376 267.582 372.418 264 368 264Z" fill="#D9D9D9"/></g></g><g><g><path d="M368 304 112 304C107.582 304 104 307.582 104 312 104 316.418 107.582 320 112 320L368 320C372.418 320 376 316.418 376 312 376 307.582 372.418 304 368 304Z" fill="#D9D9D9"/></g></g><g><g><path d="M176 400 112 400C107.582 400 104 403.582 104 408 104 412.418 107.582 416 112 416L176 416C180.418 416 184 412.418 184 408 184 403.582 180.418 400 176 400Z" fill="#D9D9D9"/></g></g><g><g><path d="M168 432 120 432C115.582 432 112 435.582 112 440 112 444.418 115.582 448 120 448L168 448C172.418 448 176 444.418 176 440 176 435.582 172.418 432 168 432Z" fill="#D9D9D9"/></g></g><g></g><g></g><g></g><g></g><g></g><g></g><g></g><g></g><g></g><g></g><g></g><g></g><g></g><g></g><g></g></svg>