<svg width="512" height="512" viewBox="0 0 512.002 512.002" xmlns="http://www.w3.org/2000/svg" xmlns:xlink="http://www.w3.org/1999/xlink" id="Layer_1" overflow="hidden"><g id="XMLID_178_"><g id="XMLID_792_"><path d="M407.07 326.654C403.164 322.75 396.834 322.75 392.927 326.654L373.724 345.857 367.07 339.203C363.164 335.299 356.834 335.299 352.927 339.203 349.022 343.108 349.022 349.44 352.927 353.346L366.653 367.072C368.606 369.024 371.165 370.001 373.724 370.001 376.283 370.001 378.842 369.024 380.795 367.072L407.069 340.798C410.976 336.892 410.976 330.56 407.07 326.654Z" id="XMLID_793_" fill="#D9D9D9"/><path d="M399.999 398 359.999 398C354.477 398 349.999 402.478 349.999 408L349.999 448C349.999 453.522 354.477 458 359.999 458L399.999 458C405.521 458 409.999 453.522 409.999 448L409.999 408C409.999 402.478 405.521 398 399.999 398ZM389.999 438 369.999 438 369.999 418 389.999 418Z" id="XMLID_796_" fill="#D9D9D9"/><path d="M449.994 418 461.994 418C467.516 418 471.994 413.522 471.994 408 471.994 402.478 467.516 398 461.994 398L449.994 398C444.472 398 439.994 402.478 439.994 408 439.994 413.522 444.472 418 449.994 418Z" id="XMLID_797_" fill="#D9D9D9"/><path d="M449.994 458 461.994 458C467.516 458 471.994 453.522 471.994 448 471.994 442.478 467.516 438 461.994 438L449.994 438C444.472 438 439.994 442.478 439.994 448 439.994 453.522 444.472 458 449.994 458Z" id="XMLID_798_" fill="#D9D9D9"/><path d="M449.994 338 461.994 338C467.516 338 471.994 333.522 471.994 328 471.994 322.478 467.516 318 461.994 318L449.994 318C444.472 318 439.994 322.478 439.994 328 439.994 333.522 444.472 338 449.994 338Z" id="XMLID_799_" fill="#D9D9D9"/><path d="M449.994 378 461.994 378C467.516 378 471.994 373.522 471.994 368 471.994 362.478 467.516 358 461.994 358L449.994 358C444.472 358 439.994 362.478 439.994 368 439.994 373.522 444.472 378 449.994 378Z" id="XMLID_800_" fill="#D9D9D9"/><path d="M320.001 396C322.631 396 325.201 394.93 327.07 393.069 328.93 391.21 330.001 388.63 330.001 386 330.001 383.37 328.931 380.79 327.07 378.93 325.211 377.07 322.631 376 320.001 376 317.36 376 314.791 377.069 312.931 378.93 311.071 380.791 310.001 383.37 310.001 386 310.001 388.63 311.07 391.21 312.931 393.069 314.791 394.93 317.371 396 320.001 396Z" id="XMLID_801_" fill="#D9D9D9"/><path d="M477.994 260 458.389 260C453.479 248.624 442.155 240.639 428.997 240.639L392.996 240.639C379.838 240.639 368.514 248.624 363.603 260L343.999 260C329.559 260 317.201 269.052 312.281 281.776L272.945 281.776C265.599 281.776 259.623 275.8 259.623 268.455L259.623 254.818C271.357 248.285 281.489 239.209 289.261 228.333L311.031 228.333C330.308 228.333 345.991 212.65 345.991 193.373L345.991 172.047C348.522 167.995 349.991 163.215 349.991 158.096L349.991 132.921C349.991 118.357 338.142 106.508 323.579 106.508L305.991 106.508 305.991 90C305.991 40.374 265.617-2.84217e-14 215.991-2.84217e-14 166.365-2.84217e-14 125.991 40.374 125.991 90L125.991 176.127C125.991 209.931 144.728 239.437 172.358 254.818L172.358 268.455C172.358 275.801 166.382 281.776 159.037 281.776L92.264 281.776C41.394 281.776 0.008 323.163 0.008 374.033 0.008 391.657 4.927 408.582 14.284 423.325 10.015 434.564 7.855 446.369 7.855 458.494 7.855 475.435 12.196 492.165 20.408 506.875 22.239 510.154 25.641 512.002 29.148 512.002 30.798 512.002 32.471 511.593 34.014 510.731 38.836 508.039 40.563 501.947 37.87 497.125 31.317 485.389 27.854 472.03 27.854 458.494 27.854 447.296 30.16 436.442 34.708 426.235 36.159 422.977 35.766 419.193 33.676 416.303 24.733 403.942 20.006 389.324 20.006 374.032 20.006 334.189 52.42 301.775 92.262 301.775L101.979 301.775 101.979 356.755C101.979 375.944 97.643 395.255 89.439 412.601 88.807 413.938 88.479 415.398 88.479 416.876L88.479 501.979C88.479 507.501 92.957 511.979 98.479 511.979 104.001 511.979 108.479 507.501 108.479 501.979L108.479 419.081C117.317 399.619 121.979 378.123 121.979 356.756L121.979 301.776 141.979 301.776 141.979 327.416C141.979 368.225 175.179 401.425 215.988 401.425 256.798 401.425 289.998 368.225 289.998 327.416L289.998 301.776 309.998 301.776 309.998 346.858C309.998 352.38 314.476 356.858 319.998 356.858 325.52 356.858 329.998 352.38 329.998 346.858L329.998 294C329.998 286.28 336.278 280 343.998 280L361.859 280C365.194 294.106 377.884 304.639 392.995 304.639L428.996 304.639C444.107 304.639 456.796 294.107 460.131 280L477.993 280C485.713 280 491.993 286.28 491.993 294L491.993 478C491.993 485.72 485.713 492 477.993 492L343.999 492C336.279 492 329.999 485.72 329.999 478L329.999 431.002C329.999 425.48 325.521 421.002 319.999 421.002 314.477 421.002 309.999 425.48 309.999 431.002L309.999 478C309.999 496.748 325.251 512 343.999 512L477.994 512C496.742 512 511.994 496.748 511.994 478L511.994 294C511.994 275.252 496.742 260 477.994 260ZM311.029 208.333 300.026 208.333C302.915 200.821 304.823 192.827 305.595 184.508L323.576 184.508C324.389 184.508 325.193 184.466 325.988 184.393L325.988 193.373C325.989 201.622 319.278 208.333 311.029 208.333ZM329.989 132.921 329.989 158.096C329.989 161.631 327.112 164.508 323.577 164.508L305.989 164.508 305.989 126.508 323.577 126.508C327.112 126.508 329.989 129.385 329.989 132.921ZM215.989 20C254.587 20 285.989 51.402 285.989 90L285.989 101.319C273.954 97.16 265.282 85.723 265.282 72.293 265.282 69.202 263.852 66.285 261.41 64.391 258.967 62.497 255.784 61.841 252.793 62.608 228.715 68.797 203.264 68.797 179.186 62.608 176.199 61.842 173.012 62.497 170.569 64.391 168.127 66.286 166.697 69.203 166.697 72.293 166.697 85.724 158.025 97.161 145.99 101.319L145.99 90C145.989 51.402 177.392 20 215.989 20ZM258.603 106.508 173.375 106.508C179.021 100.344 183.17 92.787 185.231 84.417 205.53 88.19 226.448 88.19 246.747 84.417 248.808 92.787 252.957 100.344 258.603 106.508ZM145.989 176.127 145.989 126.508 285.989 126.508 285.989 176.127C285.989 187.736 283.132 198.685 278.109 208.333L221.489 208.333C215.967 208.333 211.489 212.811 211.489 218.333 211.489 223.855 215.967 228.333 221.489 228.333L262.554 228.333C250.172 239.389 233.855 246.127 215.989 246.127 177.392 246.127 145.989 214.725 145.989 176.127ZM215.989 381.425C186.209 381.425 161.98 357.196 161.98 327.416L161.98 301.639C178.978 300.142 192.356 285.835 192.356 268.455L192.356 262.972C199.891 265.024 207.813 266.127 215.989 266.127 224.165 266.127 232.087 265.024 239.622 262.972L239.622 268.455C239.622 285.835 253 300.142 269.999 301.639L269.999 327.416C269.999 357.196 245.771 381.425 215.989 381.425ZM428.997 284.639 392.996 284.639C386.379 284.639 380.996 279.256 380.996 272.639 380.996 266.022 386.379 260.639 392.996 260.639L428.997 260.639C435.613 260.639 440.996 266.022 440.996 272.639 440.996 279.256 435.613 284.639 428.997 284.639Z" id="XMLID_804_" fill="#D9D9D9"/></g></g></svg>