<svg width="512" height="512" viewBox="0 0 512 512" xmlns="http://www.w3.org/2000/svg" xmlns:xlink="http://www.w3.org/1999/xlink" id="Capa_1" overflow="hidden"><g><path d="M403.802 334.499 373.753 325.676 308.377 282.975 308.377 273.191C327.305 258.914 340.303 237.091 342.719 212.076 352.212 210.548 359.485 202.299 359.485 192.383L359.485 165.478C359.485 165.374 359.474 165.272 359.469 165.168L359.469 131.086C363.251 128.378 365.651 123.967 365.651 119.019L365.651 87.829 410.768 80.144C418.183 78.881 423.515 72.992 424.039 65.489 424.561 57.986 420.098 51.414 412.931 49.135L260.834 0.757C257.66-0.253 254.308-0.252 251.136 0.756L99.037 49.135C91.87 51.414 87.406 57.986 87.929 65.488 88.261 70.255 90.539 74.365 94.055 77.057L94.055 117.844 93.683 117.844C85.118 117.844 78.15 124.812 78.15 133.377L78.15 153.623 68.123 212.475C66.39 222.654 74.23 231.971 84.58 231.971L118.529 231.971C128.856 231.971 136.723 222.676 134.986 212.474L124.959 153.623 124.959 133.377C124.959 124.812 117.991 117.844 109.426 117.844L109.055 117.844 109.055 81.481 146.349 87.833 146.349 119.019C146.349 123.946 148.738 128.35 152.502 131.062L152.516 165.481 152.516 192.383C152.516 202.3 159.789 210.548 169.282 212.076 171.697 237.077 184.681 258.89 203.591 273.168L203.591 282.998 138.229 325.691 108.204 334.504C76.075 343.934 53.389 373.431 53.389 407.719L53.389 430.071C53.389 434.213 56.746 437.571 60.889 437.571 65.032 437.571 68.389 434.214 68.389 430.071L68.389 407.719C68.389 380.695 86.498 356.506 112.429 348.896L140.405 340.684 252.171 407.097C254.44 408.445 257.442 408.517 259.833 407.097L371.606 340.68 399.579 348.892C425.506 356.504 443.615 380.692 443.615 407.714L443.615 480.152C443.615 489.443 436.056 497.002 426.765 497.002L393.708 497.002 393.708 464.674C393.708 460.532 390.351 457.174 386.208 457.174 382.066 457.174 378.708 460.531 378.708 464.674L378.708 497.002 133.26 497.002 133.26 464.674C133.26 460.532 129.903 457.174 125.76 457.174 121.617 457.174 118.26 460.531 118.26 464.674L118.26 497.002 85.237 497.002C75.946 497.002 68.387 489.443 68.387 480.152L68.387 465.13C68.387 460.988 65.03 457.63 60.887 457.63 56.744 457.63 53.387 460.987 53.387 465.13L53.387 480.151C53.387 497.713 67.674 512 85.236 512L426.763 512C444.325 512 458.612 497.713 458.612 480.151L458.612 407.713C458.612 374.233 436.7 344.158 403.802 334.499ZM118.528 216.971 84.58 216.971C83.531 216.971 82.731 216.034 82.909 214.993L91.979 161.757 111.129 161.757 120.199 214.992C120.376 216.031 119.582 216.971 118.528 216.971ZM109.959 133.377 109.959 146.758 93.148 146.758 93.148 133.377C93.148 133.082 93.387 132.843 93.682 132.843L109.424 132.843C109.72 132.842 109.959 133.082 109.959 133.377ZM229.177 373.171 232.162 377.759 155.593 332.262 204.194 300.517C206.398 326.377 214.922 351.262 229.177 373.171ZM229.125 340.796C246.778 343.304 265.212 343.306 282.875 340.796 279.462 349.194 275.256 357.298 270.251 364.992L256 386.896 241.749 364.992C236.744 357.298 232.538 349.194 229.125 340.796ZM282.823 373.171C297.078 351.262 305.602 326.377 307.805 300.517L356.406 332.261 279.838 377.759ZM326.694 133.879 344.47 133.879 344.47 157.977 335.647 157.977C330.71 157.977 326.693 153.961 326.693 149.024L326.693 133.879ZM103.583 63.429 255.684 15.049C255.879 14.987 256.089 14.986 256.287 15.05L408.387 63.429C408.701 63.529 409.132 63.665 409.077 64.446 409.022 65.226 408.577 65.301 408.251 65.357L357.963 73.922 339.083 71.587C334.975 71.078 331.229 74 330.72 78.11 330.212 82.221 333.133 85.965 337.243 86.473L350.653 88.132 350.653 118.88 161.348 118.873 161.348 88.131 238.955 78.528C250.259 77.131 261.719 77.131 273.015 78.528L302.388 82.161C306.498 82.67 310.243 79.749 310.752 75.639 311.261 71.528 308.34 67.784 304.23 67.275L274.857 63.642C262.34 62.093 249.64 62.093 237.114 63.642L154.02 73.924 103.717 65.357C103.391 65.301 102.946 65.226 102.891 64.446 102.837 63.665 103.268 63.528 103.583 63.429ZM167.511 157.977 167.501 133.879 185.306 133.879 185.306 149.025C185.306 153.961 181.29 157.978 176.352 157.978L167.511 157.978ZM184.018 208.221C183.632 202.114 178.556 197.33 172.463 197.33 169.734 197.33 167.514 195.11 167.514 192.382L167.514 172.977 176.352 172.977C189.559 172.977 200.305 162.232 200.305 149.025L200.305 133.879 311.694 133.879 311.694 149.025C311.694 162.232 322.44 172.977 335.647 172.977L344.485 172.977 344.485 192.382C344.485 195.11 342.265 197.33 339.536 197.33 333.443 197.33 328.367 202.114 327.981 208.222 325.592 246.091 293.974 275.756 255.999 275.756 218.024 275.756 186.407 246.091 184.018 208.221ZM256 290.755C269.339 290.755 282.017 287.705 293.378 282.282L293.378 287.035C293.378 299.858 291.648 312.507 288.317 324.707 267.935 328.593 244.892 328.75 223.683 324.707 220.352 312.508 218.622 299.859 218.622 287.035 218.622 286.876 218.6 286.721 218.59 286.564 218.588 286.533 218.591 286.502 218.589 286.471L218.589 282.267C229.958 287.699 242.648 290.755 256 290.755Z" fill="#D9D9D9"/></g></svg>