<svg width="496.085" height="496" xmlns="http://www.w3.org/2000/svg" xmlns:xlink="http://www.w3.org/1999/xlink" id="svg1454" overflow="hidden"><defs id="defs1458"><linearGradient x1="-1295.82" y1="1927.01" x2="-799.73" y2="1927.01" gradientUnits="userSpaceOnUse" xlink:href="#SVGID_12_-5" id="linearGradient2728-1" gradientTransform="translate(-2831.53 -2025.27)"></linearGradient><linearGradient x1="2112.29" y1="1234.1" x2="1775.32" y2="922.668" gradientUnits="userSpaceOnUse" id="SVGID_12_-5" gradientTransform="translate(-528.32 -100.13)"><stop offset="0" stop-color="#F89E24"/><stop offset="0.3" stop-color="#DD3885"/><stop offset="0.67" stop-color="#4D8CFF"/><stop offset="1" stop-color="#00F3C0"/></linearGradient></defs><path d="M200.039 464 296.04 464C309.272 464 320.04 453.232 320.04 440L320.04 360C320.04 346.768 309.272 336 296.04 336L200.039 336C186.808 336 176.039 346.768 176.039 360L176.039 440C176.039 453.232 186.808 464 200.039 464ZM192.039 360C192.039 355.584 195.624 352 200.039 352L296.04 352C300.456 352 304.04 355.584 304.04 360L304.04 440C304.04 444.416 300.456 448 296.04 448L200.039 448C195.624 448 192.039 444.416 192.039 440ZM224.039 384 208.039 384 208.039 368 224.039 368ZM256.039 384 240.039 384 240.039 368 256.039 368ZM288.04 384 272.039 384 272.039 368 288.04 368ZM180.359 256 315.736 256C327.559 256 338.527 251.048 345.831 242.408 365.311 219.36 376.039 190.096 376.039 160 376.039 124.712 361.983 91.84 336.463 67.456 310.959 43.08 277.479 30.432 242.095 32.136 176.727 35.096 123.175 88.64 120.175 154.024 118.727 185.704 129.015 216.624 149.159 241.104 156.951 250.568 168.327 256 180.359 256ZM242.815 48.12C273.791 46.68 303.088 57.688 325.407 79.024 347.743 100.368 360.039 129.128 360.039 160 360.039 186.32 350.655 211.912 333.607 232.08 329.351 237.112 322.839 240 315.735 240L180.359 240C173.127 240 166.255 236.696 161.519 230.928 143.895 209.52 134.895 182.464 136.159 154.76 138.784 97.552 185.631 50.712 242.815 48.12ZM168.135 160 152.135 160 152.115 158.744C152.095 157.656 152.095 156.576 152.135 155.496 152.335 151.152 152.839 146.792 153.631 142.544L169.367 145.464C168.711 148.992 168.287 152.624 168.127 156.232 168.097 156.984 168.107 157.736 168.127 158.504ZM173.551 130.944 158.679 125.056C172.663 89.736 205.967 65.808 243.543 64.104 245.047 64.034 246.535 64 248.031 64L248.031 80C246.775 80 245.535 80.03 244.263 80.09 212.975 81.506 185.223 101.474 173.551 130.946ZM420.896 252.088C419.983 251.824 419.072 251.64 418.159 251.424 412.232 241.624 402.303 234.608 390.583 232.664 393.351 227.256 395.807 221.696 397.935 216L416.039 216C429.272 216 440.039 205.232 440.039 192L440.039 112C440.039 98.768 429.272 88 416.039 88L390.727 88C364.319 35.88 310.351 0 248.039 0 185.727 0 131.759 35.88 105.351 88L80.0395 88C66.8075 88 56.0395 98.768 56.0395 112L56.0395 192C56.0395 205.232 66.8075 216 80.0395 216L98.1436 216C100.271 221.696 102.728 227.256 105.496 232.664 93.7756 234.616 83.8475 241.632 77.9196 251.424 77.0076 251.632 76.0956 251.824 75.1834 252.088 48.4955 259.8 26.3995 277.44 12.9835 301.76-0.432548 326.08-3.57655 354.176 4.13545 380.864 9.55945 399.656 20.0556 416.256 34.4876 429.24 32.8955 438.016 32.0395 446.96 32.0395 456L32.0395 496 464.039 496 464.039 456C464.039 446.96 463.184 438.016 461.599 429.24 476.031 416.256 486.52 399.656 491.952 380.864 499.664 354.176 496.512 326.08 483.103 301.76 469.68 277.44 447.583 259.8 420.896 252.088ZM475.128 323.216 459.632 327.048C457.135 320.256 453.599 313.896 449.176 308.136L460.695 297.056C463.792 300.936 466.639 305.048 469.079 309.488 471.535 313.92 473.496 318.528 475.128 323.216ZM478.423 368.624 462.967 364.16C464.232 356.888 464.328 349.64 463.408 342.6L478.967 338.752C480.487 348.6 480.359 358.664 478.423 368.624ZM445.84 367.536C444.848 370.976 443.535 374.256 441.944 377.392 437.815 370.608 433.056 364.176 427.855 358.04L429.512 354.728C432.375 349 432.832 342.496 430.799 336.4 429.464 332.408 427.087 328.984 424.039 326.24L424.039 306.056C443.408 319.472 452.655 343.96 445.84 367.536ZM54.1354 377.392C52.5433 374.256 51.2314 370.976 50.2394 367.536 43.4234 343.96 52.6714 319.472 72.0394 306.064L72.0394 326.248C68.9913 328.992 66.6153 332.416 65.2794 336.408 63.2474 342.504 63.7034 349.008 66.5674 354.736L68.2233 358.048C63.0233 364.184 58.2633 370.608 54.1354 377.392ZM80.8792 347.576C79.9273 345.672 79.7753 343.504 80.4473 341.472 81.1273 339.432 82.5593 337.784 84.4473 336.84 85.5672 336.288 86.8073 336 88.0313 336 91.0793 336 93.8313 337.696 95.1992 340.424L143.199 436.424C144.151 438.328 144.303 440.496 143.623 442.528 142.943 444.568 141.519 446.208 139.607 447.16 135.751 449.08 130.799 447.4 128.887 443.584ZM136.047 464C139.735 464 143.431 463.128 146.751 461.48 152.487 458.616 156.767 453.68 158.799 447.6 160.831 441.52 160.375 435.008 157.511 429.272L112.967 340.184C134.375 327.008 158.775 320 184.039 320L312.039 320C337.311 320 361.711 327.008 383.111 340.184L338.567 429.264C335.703 435 335.247 441.504 337.279 447.592 339.311 453.68 343.591 458.608 349.335 461.48 352.647 463.128 356.343 464 360.031 464L360.031 464 360.031 480 136.031 480 136.031 464C136.031 464 136.031 464 136.031 464ZM160.039 304C155.623 304 152.039 300.416 152.039 296 152.039 291.584 155.623 288 160.039 288L336.039 288C340.455 288 344.039 291.584 344.039 296 344.039 300.416 340.455 304 336.039 304L312.039 304 184.039 304ZM367.199 443.576C365.287 447.4 360.303 449.072 356.487 447.16 354.567 446.2 353.143 444.56 352.463 442.52 351.783 440.488 351.935 438.328 352.887 436.416L400.879 340.432C402.247 337.696 404.999 336 408.047 336 409.272 336 410.511 336.288 411.599 336.832 413.511 337.784 414.944 339.432 415.623 341.472 416.295 343.504 416.143 345.664 415.191 347.576ZM449.607 285.52 438.063 296.632C433.823 293.128 429.143 290.064 424.039 287.544L424.039 272C424.039 271.312 423.871 270.664 423.839 269.984 433.367 273.664 442.023 278.944 449.607 285.52ZM384.039 248C397.271 248 408.039 258.768 408.039 272L408.039 320C401.751 320 395.943 322.448 391.559 326.608 380.119 319.552 367.927 314.072 355.199 310.296 358.199 306.288 360.039 301.376 360.039 296 360.039 289.784 357.599 284.16 353.711 279.888 364.519 270.392 373.863 259.672 381.615 248ZM416.039 104C420.456 104 424.039 107.584 424.039 112L424.039 192C424.039 196.416 420.456 200 416.039 200L402.951 200C406.263 187.104 408.039 173.704 408.039 160 408.039 140.28 404.279 121.456 397.727 104ZM80.0392 200C75.6233 200 72.0392 196.416 72.0392 192L72.0392 112C72.0392 107.584 75.6233 104 80.0392 104L98.3512 104C91.7991 121.456 88.0392 140.28 88.0392 160 88.0392 173.704 89.8153 187.104 93.1272 200ZM248.039 16C327.439 16 392.039 80.6 392.039 160 392.039 203.96 372.343 244.64 337.959 272.192 337.319 272.142 336.695 272 336.039 272L160.039 272C159.383 272 158.759 272.144 158.119 272.192 123.735 244.64 104.039 203.96 104.039 160 104.039 80.6 168.639 16 248.039 16ZM112.039 248 114.471 248C122.223 259.672 131.567 270.4 142.375 279.888 138.479 284.16 136.039 289.784 136.039 296 136.039 301.376 137.879 306.296 140.879 310.296 128.151 314.072 115.959 319.552 104.519 326.6 100.143 322.448 94.3271 320 88.0392 320L88.0392 272C88.0392 258.768 98.8073 248 112.039 248ZM72.0392 272 72.0392 287.536C66.9352 290.056 62.2552 293.12 58.0153 296.624L46.4712 285.52C54.0553 278.944 62.7113 273.664 72.2473 269.984 72.2073 270.664 72.0392 271.312 72.0392 272ZM35.3833 297.056 46.9033 308.136C42.4793 313.888 38.9432 320.256 36.4473 327.048L20.9513 323.216C22.5833 318.528 24.5512 313.92 26.9912 309.488 29.4393 305.048 32.2873 300.936 35.3833 297.056ZM17.6552 368.624C15.7193 358.664 15.5992 348.6 17.1033 338.744L32.6633 342.592C31.7512 349.64 31.8472 356.888 33.1033 364.152ZM22.1033 384 37.5513 379.536C39.6554 384.632 42.3593 389.408 45.5675 393.888 43.0156 399.536 40.7913 405.312 38.9515 411.224 31.7034 403.272 26.0156 394.072 22.1033 384ZM48.0392 456C48.0392 426.136 57.9272 397.32 76.0312 373.664L114.567 450.736C115.951 453.496 117.839 455.872 120.039 457.848L120.039 480 48.0392 480ZM448.039 480 376.039 480 376.039 457.848C378.239 455.872 380.127 453.496 381.511 450.736L420.047 373.664C438.151 397.32 448.039 426.136 448.039 456ZM457.135 411.216C455.296 405.304 453.072 399.528 450.52 393.88 453.728 389.408 456.431 384.624 458.535 379.528L473.975 384C470.064 394.072 464.375 403.272 457.135 411.216Z" id="path1202-7" stroke-width="8" fill="#F2F2F2"/></svg>